<svg width="128" height="128" viewBox="0 0 128 128" fill="none" xmlns="http://www.w3.org/2000/svg">
<path d="M64 128C99.3462 128 128 99.3462 128 64C128 28.6538 99.3462 0 64 0C28.6538 0 0 28.6538 0 64C0 99.3462 28.6538 128 64 128Z" fill="#007DB9"/>
<mask id="mask0_17_7" style="mask-type:luminance" maskUnits="userSpaceOnUse" x="0" y="0" width="128" height="128">
<path d="M64 128C99.3462 128 128 99.3462 128 64C128 28.6538 99.3462 0 64 0C28.6538 0 0 28.6538 0 64C0 99.3462 28.6538 128 64 128Z" fill="white"/>
</mask>
<g mask="url(#mask0_17_7)">
<path d="M94.898 43.704L128 76.563V128H57.735L22.193 92.504L94.898 43.704Z" fill="#0071B1"/>
</g>
<mask id="mask1_17_7" style="mask-type:luminance" maskUnits="userSpaceOnUse" x="0" y="0" width="128" height="128">
<path d="M64 128C99.3462 128 128 99.3462 128 64C128 28.6538 99.3462 0 64 0C28.6538 0 0 28.6538 0 64C0 99.3462 28.6538 128 64 128Z" fill="white"/>
</mask>
<g mask="url(#mask1_17_7)">
<path d="M106.318 67L128 88.555V128H57.735L22.193 92.504L106.318 67Z" fill="#006DAD"/>
</g>
<path d="M47.36 71.889C61.2593 71.889 72.527 60.6213 72.527 46.722C72.527 32.8226 61.2593 21.555 47.36 21.555C33.4606 21.555 22.193 32.8226 22.193 46.722C22.193 60.6213 33.4606 71.889 47.36 71.889Z" fill="#FFCC07"/>
<path d="M47.36 63.904C56.8493 63.904 64.542 56.2113 64.542 46.722C64.542 37.2326 56.8493 29.54 47.36 29.54C37.8706 29.54 30.178 37.2326 30.178 46.722C30.178 56.2113 37.8706 63.904 47.36 63.904Z" fill="#F4EC4E"/>
<path d="M47.36 55.404C52.1549 55.404 56.042 51.5169 56.042 46.722C56.042 41.927 52.1549 38.04 47.36 38.04C42.565 38.04 38.678 41.927 38.678 46.722C38.678 51.5169 42.565 55.404 47.36 55.404Z" fill="#F5ECDF"/>
<path d="M97.6329 62.205C98.3139 60.109 98.6939 57.878 98.6939 55.555C98.6939 43.681 89.0679 34.055 77.1939 34.055C68.1479 34.055 60.4219 39.648 57.2469 47.559C54.4339 45.772 51.1069 44.722 47.5269 44.722C37.5179 44.722 29.4029 52.817 29.3639 62.817C22.3689 65.344 17.1949 72.022 17.1949 79.888C17.1949 89.855 24.9999 97.938 34.9999 98.045V98H93.5269C103.56 98 111.694 89.894 111.694 79.861C111.693 71.242 105.685 64.069 97.6329 62.205Z" fill="#6AC5F0"/>
<path d="M57.2469 47.559C54.4339 45.772 51.1069 44.722 47.5269 44.722C37.5179 44.722 29.4029 52.817 29.3639 62.817C22.3689 65.344 17.1949 72.022 17.1949 79.888C17.1949 83.852 18.4449 87.506 20.5609 90.491C19.6189 88.247 19.0919 85.777 19.0919 83.177C19.0919 75.176 24.5909 68.382 31.7159 65.812C31.7559 55.64 40.0219 47.405 50.2179 47.405C53.8639 47.405 57.2539 48.473 60.1189 50.291C63.3529 42.244 71.2229 36.555 80.438 36.555C84.494 36.555 88.2889 37.66 91.5469 39.579C87.7389 36.156 82.7189 34.055 77.1949 34.055C68.1479 34.055 60.4209 39.648 57.2469 47.559Z" fill="#A8DBEE"/>
<path d="M73.519 67.819C71.541 66.562 69.202 65.824 66.685 65.824C59.648 65.824 53.943 71.515 53.915 78.546C48.997 80.322 45.359 85.018 45.359 90.548C45.359 93.335 46.238 95.904 47.725 98.002C47.063 96.425 46.692 94.688 46.692 92.86C46.692 87.235 50.558 82.458 55.568 80.651C55.596 73.499 61.408 67.71 68.576 67.71C71.14 67.71 73.523 68.461 75.537 69.739C77.811 64.082 83.344 60.082 89.822 60.082C92.673 60.082 95.342 60.859 97.632 62.208C94.955 59.801 91.425 58.324 87.542 58.324C81.183 58.326 75.751 62.258 73.519 67.819Z" fill="#A8DBEE"/>
</svg>
